{
  "accessors": [
    {
      "bufferView": 0,
      "componentType": 5126,
      "count": 917,
      "max": [
        0.7000006437301636,
        1.5000005960464478,
        0.40000036358833313
      ],
      "min": [
        -0.699999988079071,
        -5.96045985901128e-08,
        -0.4000000059604645
      ],
      "type": "VEC3"
    },
    {
      "bufferView": 1,
      "componentType": 5125,
      "count": 1608,
      "type": "SCALAR"
    },
    {
      "bufferView": 2,
      "componentType": 5126,
      "count": 917,
      "type": "VEC3"
    },
    {
      "bufferView": 3,
      "componentType": 5126,
      "count": 917,
      "type": "VEC4"
    },
    {
      "bufferView": 4,
      "componentType": 5126,
      "count": 917,
      "type": "VEC2"
    },
    {
      "bufferView": 5,
      "componentType": 5126,
      "count": 4,
      "max": [
        0.6000001430511475,
        0.0,
        0.6000001430511475
      ],
      "min": [
        -0.6000000238418579,
        0.0,
        -0.6000000238418579
      ],
      "type": "VEC3"
    },
    {
      "bufferView": 6,
      "componentType": 5121,
      "count": 4,
      "type": "SCALAR"
    },
    {
      "bufferView": 7,
      "componentType": 5126,
      "count": 4,
      "type": "VEC3"
    },
    {
      "bufferView": 8,
      "componentType": 5126,
      "count": 4,
      "type": "VEC4"
    },
    {
      "bufferView": 9,
      "componentType": 5126,
      "count": 4,
      "type": "VEC2"
    }
  ],
  "asset": {
    "version": "2.0"
  },
  "bufferViews": [
    {
      "buffer": 0,
      "byteLength": 11004,
      "target": 34962
    },
    {
      "buffer": 1,
      "byteLength": 6432,
      "target": 34963
    },
    {
      "buffer": 2,
      "byteLength": 11004,
      "target": 34962
    },
    {
      "buffer": 3,
      "byteLength": 14672,
      "target": 34962
    },
    {
      "buffer": 4,
      "byteLength": 7336,
      "target": 34962
    },
    {
      "buffer": 5,
      "byteLength": 48,
      "target": 34962
    },
    {
      "buffer": 6,
      "byteLength": 4,
      "target": 34963
    },
    {
      "buffer": 7,
      "byteLength": 48,
      "target": 34962
    },
    {
      "buffer": 8,
      "byteLength": 64,
      "target": 34962
    },
    {
      "buffer": 9,
      "byteLength": 32,
      "target": 34962
    }
  ],
  "buffers": [
    {
      "byteLength": 11004,
      "uri": "data:application/octet-stream;base64,"
    },
    {
      "byteLength": 6432,
      "uri": "data:application/octet-stream;base64,"
    },
    {
      "byteLength": 11004,
      "uri": "data:application/octet-stream;base64,"
    },
    {
      "byteLength": 14672,
      "uri": "data:application/octet-stream;base64,"
    },
    {
      "byteLength": 7336,
      "uri": "data:application/octet-stream;base64,"
    },
    {
      "byteLength": 48,
      "uri": "data:application/octet-stream;base64,"
    },
    {
      "byteLength": 4,
      "uri": "data:application/octet-stream;base64,"
    },
    {
      "byteLength": 48,
      "uri": "data:application/octet-stream;base64,"
    },
    {
      "byteLength": 64,
      "uri": "data:application/octet-stream;base64,"
    },
    {
      "byteLength": 32,
      "uri": "data:application/octet-stream;base64,"
    }
  ],
  "materials": [
    {
      "doubleSided": true,
      "name": "Tex_Chicken",
      "pbrMetallicRoughness": {
        "baseColorFactor": [
          0.800000011920929,
          0.800000011920929,
          0.800000011920929,
          1.0
        ]
      }
    }
  ],
  "meshes": [
    {
      "name": "FBX_Chicken_Tex_Chicken_0",
      "primitives": [
        {
          "attributes": {
            "NORMAL": 2,
            "POSITION": 0,
            "TANGENT": 3,
            "TEXCOORD_0": 4
          },
          "indices": 1,
          "material": 0,
          "mode": 5
        }
      ]
    },
    {
      "name": "FBX_Chicken_Shadow_Tex_Chicken_Shadow_0",
      "primitives": [
        {
          "attributes": {
            "NORMAL": 7,
            "POSITION": 5,
            "TANGENT": 8,
            "TEXCOORD_0": 9
          },
          "indices": 6,
          "material": 0,
          "mode": 5
        }
      ]
    }
  ],
  "nodes": [
    {
      "mesh": 0,
      "name": "FBX_Chicken_Tex_Chicken_0"
    },
    {
      "mesh": 1,
      "name": "FBX_Chicken_Shadow_Tex_Chicken_Shadow_0"
    },
    {
      "children": [
        1
      ],
      "name": "FBX_Chicken_Shadow"
    },
    {
      "children": [
        0,
        2
      ],
      "name": "FBX_Chicken"
    },
    {
      "children": [
        3
      ],
      "name": "RootNode"
    },
    {
      "children": [
        4
      ],
      "name": "5abf1fbdc67c4da39713c71f4682c4b7.fbx",
      "rotation": [
        1.1102230246251565e-16,
        0.0,
        0.0,
        1.0
      ],
      "scale": [
        0.009999999776482582,
        0.009999999776482582,
        0.009999999776482582
      ],
      "translation": [
        0.0,
        0.0,
        0.0
      ]
    }
  ],
  "scene": 0,
  "scenes": [
    {
      "nodes": [
        5
      ]
    }
  ]
}
