{
  "accessors": [
    {
      "bufferView": 0,
      "componentType": 5126,
      "count": 1681,
      "max": [
        1.3023847341537476,
        8.566003799438477,
        2.3775711059570313
      ],
      "min": [
        -3.456010103225708,
        -0.5914760231971741,
        -2.2892000675201416
      ],
      "type": "VEC3"
    },
    {
      "bufferView": 1,
      "componentType": 5125,
      "count": 2972,
      "type": "SCALAR"
    },
    {
      "bufferView": 2,
      "componentType": 5126,
      "count": 1681,
      "type": "VEC3"
    },
    {
      "bufferView": 3,
      "componentType": 5126,
      "count": 1681,
      "type": "VEC4"
    },
    {
      "bufferView": 4,
      "componentType": 5126,
      "count": 1681,
      "type": "VEC2"
    },
    {
      "bufferView": 5,
      "componentType": 5126,
      "count": 1681,
      "max": [
        1.3023847341537476,
        8.566003799438477,
        2.3775711059570313
      ],
      "min": [
        -3.456010103225708,
        -0.5914760231971741,
        -2.2892000675201416
      ],
      "type": "VEC3"
    },
    {
      "bufferView": 6,
      "componentType": 5123,
      "count": 84,
      "type": "SCALAR"
    },
    {
      "bufferView": 7,
      "componentType": 5126,
      "count": 1681,
      "type": "VEC3"
    },
    {
      "bufferView": 8,
      "componentType": 5126,
      "count": 1681,
      "type": "VEC4"
    },
    {
      "bufferView": 9,
      "componentType": 5126,
      "count": 1681,
      "type": "VEC2"
    },
    {
      "bufferView": 10,
      "componentType": 5126,
      "count": 30,
      "max": [
        0.500000536441803,
        0.052845463156700134,
        0.500000536441803
      ],
      "min": [
        -0.5,
        0.0,
        -0.5
      ],
      "type": "VEC3"
    },
    {
      "bufferView": 11,
      "componentType": 5125,
      "count": 58,
      "type": "SCALAR"
    },
    {
      "bufferView": 12,
      "componentType": 5126,
      "count": 30,
      "type": "VEC3"
    },
    {
      "bufferView": 13,
      "componentType": 5126,
      "count": 30,
      "type": "VEC4"
    },
    {
      "bufferView": 14,
      "componentType": 5126,
      "count": 30,
      "type": "VEC2"
    },
    {
      "bufferView": 15,
      "componentType": 5126,
      "count": 264,
      "max": [
        0.5030999779701233,
        0.49552738666534424,
        0.5157647728919983
      ],
      "min": [
        -0.5181540250778198,
        -0.47960400581359863,
        -0.5157610177993774
      ],
      "type": "VEC3"
    },
    {
      "bufferView": 16,
      "componentType": 5125,
      "count": 394,
      "type": "SCALAR"
    },
    {
      "bufferView": 17,
      "componentType": 5126,
      "count": 264,
      "type": "VEC3"
    },
    {
      "bufferView": 18,
      "componentType": 5126,
      "count": 264,
      "type": "VEC4"
    },
    {
      "bufferView": 19,
      "componentType": 5126,
      "count": 264,
      "type": "VEC2"
    }
  ],
  "asset": {
    "version": "2.0"
  },
  "bufferViews": [
    {
      "buffer": 0,
      "byteLength": 20172,
      "target": 34962
    },
    {
      "buffer": 1,
      "byteLength": 11888,
      "target": 34963
    },
    {
      "buffer": 2,
      "byteLength": 20172,
      "target": 34962
    },
    {
      "buffer": 3,
      "byteLength": 26896,
      "target": 34962
    },
    {
      "buffer": 4,
      "byteLength": 13448,
      "target": 34962
    },
    {
      "buffer": 0,
      "byteLength": 20172,
      "target": 34962
    },
    {
      "buffer": 5,
      "byteLength": 168,
      "target": 34963
    },
    {
      "buffer": 2,
      "byteLength": 20172,
      "target": 34962
    },
    {
      "buffer": 3,
      "byteLength": 26896,
      "target": 34962
    },
    {
      "buffer": 4,
      "byteLength": 13448,
      "target": 34962
    },
    {
      "buffer": 6,
      "byteLength": 360,
      "target": 34962
    },
    {
      "buffer": 7,
      "byteLength": 232,
      "target": 34963
    },
    {
      "buffer": 8,
      "byteLength": 360,
      "target": 34962
    },
    {
      "buffer": 9,
      "byteLength": 480,
      "target": 34962
    },
    {
      "buffer": 10,
      "byteLength": 240,
      "target": 34962
    },
    {
      "buffer": 11,
      "byteLength": 3168,
      "target": 34962
    },
    {
      "buffer": 12,
      "byteLength": 1576,
      "target": 34963
    },
    {
      "buffer": 13,
      "byteLength": 3168,
      "target": 34962
    },
    {
      "buffer": 14,
      "byteLength": 4224,
      "target": 34962
    },
    {
      "buffer": 15,
      "byteLength": 2112,
      "target": 34962
    }
  ],
  "buffers": [
    {
      "byteLength": 20172,
      "uri": "data:application/octet-stream;base64,"
    },
    {
      "byteLength": 11888,
      "uri": "data:application/octet-stream;base64,"
    },
    {
      "byteLength": 20172,
      "uri": "data:application/octet-stream;base64,"
    },
    {
      "byteLength": 26896,
      "uri": "data:application/octet-stream;base64,"
    },
    {
      "byteLength": 13448,
      "uri": "data:application/octet-stream;base64,"
    },
    {
      "byteLength": 168,
      "uri": "data:application/octet-stream;base64,"
    },
    {
      "byteLength": 360,
      "uri": "data:application/octet-stream;base64,"
    },
    {
      "byteLength": 232,
      "uri": "data:application/octet-stream;base64,"
    },
    {
      "byteLength": 360,
      "uri": "data:application/octet-stream;base64,"
    },
    {
      "byteLength": 480,
      "uri": "data:application/octet-stream;base64,"
    },
    {
      "byteLength": 240,
      "uri": "data:application/octet-stream;base64,"
    },
    {
      "byteLength": 3168,
      "uri": "data:application/octet-stream;base64,"
    },
    {
      "byteLength": 1576,
      "uri": "data:application/octet-stream;base64,"
    },
    {
      "byteLength": 3168,
      "uri": "data:application/octet-stream;base64,"
    },
    {
      "byteLength": 4224,
      "uri": "data:application/octet-stream;base64,"
    },
    {
      "byteLength": 2112,
      "uri": "data:application/octet-stream;base64,"
    }
  ],
  "materials": [
    {
      "doubleSided": true,
      "name": "lambert1",
      "pbrMetallicRoughness": {
        "baseColorFactor": [
          0.800000011920929,
          0.800000011920929,
          0.800000011920929,
          1.0
        ]
      }
    },
    {
      "doubleSided": true,
      "name": "lambert3",
      "pbrMetallicRoughness": {
        "baseColorFactor": [
          0.41571900248527527,
          0.4397290050983429,
          0.4503999948501587,
          1.0
        ]
      }
    }
  ],
  "meshes": [
    {
      "name": "group3_pasted__group1_pasted__pasted__pCone1_lambert1_0",
      "primitives": [
        {
          "attributes": {
            "NORMAL": 2,
            "POSITION": 0,
            "TANGENT": 3,
            "TEXCOORD_0": 4
          },
          "indices": 1,
          "material": 0,
          "mode": 5
        },
        {
          "attributes": {
            "NORMAL": 7,
            "POSITION": 5,
            "TANGENT": 8,
            "TEXCOORD_0": 9
          },
          "indices": 6,
          "material": 0,
          "mode": 4
        }
      ]
    },
    {
      "name": "pPlane1_lambert2_0",
      "primitives": [
        {
          "attributes": {
            "NORMAL": 12,
            "POSITION": 10,
            "TANGENT": 13,
            "TEXCOORD_0": 14
          },
          "indices": 11,
          "material": 0,
          "mode": 5
        }
      ]
    },
    {
      "name": "pCube3_lambert3_0",
      "primitives": [
        {
          "attributes": {
            "NORMAL": 17,
            "POSITION": 15,
            "TANGENT": 18,
            "TEXCOORD_0": 19
          },
          "indices": 16,
          "material": 1,
          "mode": 5
        }
      ]
    }
  ],
  "nodes": [
    {
      "mesh": 0,
      "name": "group3_pasted__group1_pasted__pasted__pCone1_lambert1_0"
    },
    {
      "children": [
        0
      ],
      "name": "group3_pasted__group1_pasted__pasted__pCone1",
      "rotation": [
        0.0,
        0.0,
        0.0,
        1.0
      ],
      "scale": [
        1.0,
        1.0,
        1.0
      ],
      "translation": [
        0.0,
        0.6553270220756531,
        0.0
      ]
    },
    {
      "mesh": 1,
      "name": "pPlane1_lambert2_0"
    },
    {
      "children": [
        2
      ],
      "name": "pPlane1",
      "rotation": [
        0.0,
        0.0,
        0.0,
        1.0
      ],
      "scale": [
        6.764579772949219,
        6.764579772949219,
        6.764579772949219
      ],
      "translation": [
        -0.7027289867401123,
        0.05755399912595749,
        0.10722199827432632
      ]
    },
    {
      "mesh": 2,
      "name": "pCube3_lambert3_0"
    },
    {
      "children": [
        4
      ],
      "name": "pCube3",
      "rotation": [
        0.0,
        0.0,
        0.0,
        1.0
      ],
      "scale": [
        0.6968439817428589,
        0.6968439817428589,
        0.6968439817428589
      ],
      "translation": [
        -0.8449109792709351,
        0.36764299869537354,
        0.17757900059223175
      ]
    },
    {
      "children": [
        1,
        3,
        5
      ],
      "name": "RootNode"
    },
    {
      "children": [
        6
      ],
      "name": "269b549831cb45e192d009505178a374.fbx",
      "rotation": [
        1.1102230246251565e-16,
        0.0,
        0.0,
        1.0
      ],
      "scale": [
        1.0,
        1.0,
        1.0
      ],
      "translation": [
        0.0,
        0.0,
        0.0
      ]
    }
  ],
  "scene": 0,
  "scenes": [
    {
      "nodes": [
        7
      ]
    }
  ]
}
